# xmcd CD database file
#
# Track frame offsets:
#	150
#	18392
#	48710
#	63380
#	78210
#	92965
#	114537
#	127322
#	154942
#	166275
#	181207
#	199882
#	215790
#	230855
#	249905
#	262412
#	279820
#	293037
#	304805
#	319772
#
# Disc length: 4509 seconds
#
# Revision: 0
# Processed by: cddbd v1.5.2PL0 Copyright (c) Steve Scherf et al.
# Submitted via: CDex 1.51
#
DISCID=31119b14
DTITLE=Brownie and Sonny - Double Play
DYEAR=1958
DGENRE=Blues
TTITLE0=I'm a Stranger Here
TTITLE1=Everybody's Blue
TTITLE2=Trouble in Mind
TTITLE3=Walk On
TTITLE4=Down by the Riverside
TTITLE5=Blues for the Low Lands
TTITLE6=Right on that Shore
TTITLE7=Blowin' the Fuses
TTITLE8=Cornbread, Meat and Molasses
TTITLE9=Ham and Eggs
TTITLE10=Lost John
TTITLE11=Chain Gang Blues
TTITLE12=It Takes a Chain Gang Man
TTITLE13=Betty and Dupree
TTITLE14=Stackhole
TTITLE15=Rock Me Momma
TTITLE16=Chain Gang Special
TTITLE17=Long John
TTITLE18=Pick a Bale of Cotton
TTITLE19=Red River
EXTD=YEAR: 1958
EXTT0=
EXTT1=
EXTT2=
EXTT3=
EXTT4=
EXTT5=
EXTT6=
EXTT7=
EXTT8=
EXTT9=
EXTT10=
EXTT11=
EXTT12=
EXTT13=
EXTT14=
EXTT15=
EXTT16=
EXTT17=
EXTT18=
EXTT19=
PLAYORDER=
